<svg xmlns="http://www.w3.org/2000/svg"  viewBox="0 0 64 64" width="64px" height="64px"><g data-name="18 Vision"><path fill="#ffb7b6" d="M46.182,51.976h0L38,49H26l-8.181,2.975h0A4.607,4.607,0,0,0,15,56v7H49V56A4.607,4.607,0,0,0,46.182,51.976Z"/><path fill="#ffdab2" d="M32,45a7.955,7.955,0,0,1-4.628-1.486L26,49l6,5,6-5-1.372-5.486A7.953,7.953,0,0,1,32,45Z"/><path fill="#ffdab2" d="M32,45a8.009,8.009,0,0,1-8-8V29H40v8A8.009,8.009,0,0,1,32,45Z"/><path fill="#55adf4" d="M29,20a5,5,0,0,0-5,5v4H40a5,5,0,0,0,5-5V20Z"/><path fill="#fff" d="M42,11s-3.926,5-10,5-10-5-10-5,3.925-5,10-5S42,11,42,11Z"/><circle cx="32" cy="11" r="5" fill="#55adf4"/><circle cx="55" cy="4" r="3" fill="#ffdd5b"/><circle cx="55" cy="18" r="3" fill="#ffdd5b"/><circle cx="9" cy="4" r="3" fill="#ffdd5b"/><circle cx="9" cy="18" r="3" fill="#ffdd5b"/><g><path fill="#005e73" d="M46.523,51.035l-7.682-2.793L37.758,43.91A8.985,8.985,0,0,0,41,37V29.91A6,6,0,0,0,46,24V20a1,1,0,0,0-1-1H29a6.006,6.006,0,0,0-6,6V37a8.984,8.984,0,0,0,3.242,6.909l-1.083,4.333-7.683,2.794A5.591,5.591,0,0,0,14,56v7a1,1,0,0,0,1,1H49a1,1,0,0,0,1-1V56A5.593,5.593,0,0,0,46.523,51.035ZM25,25a4,4,0,0,1,4-4H44v3a4,4,0,0,1-4,4H25Zm0,12V30H39v7a6.994,6.994,0,0,1-2.968,5.712l-.009.007a6.958,6.958,0,0,1-8.046,0l-.009-.007A6.992,6.992,0,0,1,25,37Zm7,9a8.945,8.945,0,0,0,3.984-.941l.894,3.575L32,52.7l-4.877-4.064.893-3.575A8.945,8.945,0,0,0,32,46ZM48,62H16V56a3.632,3.632,0,0,1,2.161-3.086l7.64-2.778,5.559,4.633a1,1,0,0,0,1.28,0L38.2,50.137l7.641,2.778A3.63,3.63,0,0,1,48,56Z"/><path fill="#005e73" d="M55,14a4,4,0,0,0-3.858,3H49V5h2.142a4,4,0,1,0,0-2H48a1,1,0,0,0-1,1v6H42.459C41.363,8.771,37.549,5,32,5s-9.363,3.771-10.46,5H17V4a1,1,0,0,0-1-1H12.858a4,4,0,1,0,0,2H15V17H12.858a4,4,0,1,0,0,2H16a1,1,0,0,0,1-1V12h4.54c1.1,1.229,4.911,5,10.46,5s9.363-3.771,10.459-5H47v6a1,1,0,0,0,1,1h3.142A3.993,3.993,0,1,0,55,14ZM55,2a2,2,0,1,1-2,2A2,2,0,0,1,55,2ZM9,6a2,2,0,1,1,2-2A2,2,0,0,1,9,6ZM9,20a2,2,0,1,1,2-2A2,2,0,0,1,9,20Zm27-9a4,4,0,1,1-4-4A4,4,0,0,1,36,11ZM26.54,8.527a5.933,5.933,0,0,0,0,4.946A14.8,14.8,0,0,1,23.347,11,14.8,14.8,0,0,1,26.54,8.527Zm10.916,4.954a5.936,5.936,0,0,0,0-4.954A14.867,14.867,0,0,1,40.655,11,14.642,14.642,0,0,1,37.456,13.481ZM55,20a2,2,0,1,1,2-2A2,2,0,0,1,55,20Z"/></g></g></svg>